<?xml version="1.0" encoding="UTF-8" standalone="no"?>
<!DOCTYPE svg PUBLIC "-//W3C//DTD SVG 1.1//EN" "http://www.w3.org/Graphics/SVG/1.1/DTD/svg11.dtd">
<svg xmlns="http://www.w3.org/2000/svg" version="1.1" viewBox="0 0 1448 1448" width="1448" height="1448">
<g stroke-width="2.00" fill="none" stroke-linecap="butt">
<path stroke="#75866f" vector-effect="non-scaling-stroke" d="
  M 0.00 411.19
  L 0.21 403.50"
/>
<path stroke="#75866f" vector-effect="non-scaling-stroke" d="
  M 586.78 913.76
  C 590.88 935.55 607.88 951.55 629.26 956.39
  Q 635.18 957.73 645.88 957.73
  C 842.92 957.74 1039.97 957.73 1237.00 957.74
  Q 1248.24 957.74 1254.26 956.38
  C 1280.68 950.39 1298.24 929.31 1298.24 902.00
  Q 1298.27 727.16 1298.24 552.31
  Q 1298.23 538.52 1296.92 532.41
  C 1292.33 511.17 1274.82 494.59 1253.45 490.92
  Q 1248.13 490.00 1233.50 490.00
  Q 939.47 489.99 645.45 490.01
  Q 633.83 490.01 627.80 491.40
  C 608.08 495.93 592.47 510.90 587.41 530.60
  C 585.64 537.46 585.52 546.38 585.51 553.50
  Q 585.45 616.04 585.52 875.75
  C 585.52 887.81 584.77 903.11 586.78 913.76"
/>
<path stroke="#5d6e57" vector-effect="non-scaling-stroke" d="
  M 276.46 856.97
  A 0.78 0.77 -81.3 0 1 277.00 857.71
  L 277.00 891.11
  A 0.61 0.61 0.0 0 0 277.61 891.72
  L 327.63 891.74
  A 0.62 0.62 0.0 0 0 328.25 891.12
  L 328.25 615.03
  A 0.54 0.53 0.6 0 0 327.72 614.50
  L 276.77 614.48
  A 0.45 0.45 0.0 0 0 276.32 614.93
  Q 276.14 680.29 276.27 718.50
  Q 276.28 721.99 276.00 724.40
  A 0.69 0.68 -86.3 0 1 275.31 725.01
  L 273.14 724.97
  A 0.82 0.82 0.0 0 1 272.37 724.40
  Q 263.01 695.43 232.96 689.28
  C 187.28 679.95 151.11 707.04 145.24 752.50
  Q 143.15 768.64 143.43 787.11
  C 143.66 802.02 143.02 821.26 146.53 836.74
  C 155.72 877.32 184.70 898.12 226.46 893.97
  Q 261.40 890.51 272.72 858.43
  C 273.48 856.29 274.51 856.38 276.46 856.97"
/>
<path stroke="#5d6e57" vector-effect="non-scaling-stroke" d="
  M 431.56 803.00
  L 559.97 803.00
  A 0.47 0.46 90.0 0 0 560.43 802.53
  C 560.26 787.91 561.11 771.05 559.16 758.00
  C 550.77 701.68 499.55 677.45 447.58 689.52
  C 410.32 698.17 386.89 725.41 382.73 764.03
  C 381.70 773.59 382.40 790.93 382.40 807.91
  C 382.39 868.53 423.28 898.08 480.50 895.68
  C 501.40 894.81 521.67 888.34 537.98 874.97
  Q 555.43 860.65 560.31 836.84
  A 1.33 1.33 0.0 0 0 559.01 835.25
  L 514.08 835.25
  A 0.70 0.69 -79.6 0 0 513.43 835.70
  Q 509.80 845.56 501.71 850.25
  C 475.91 865.24 437.37 857.50 431.79 823.72
  Q 430.47 815.74 431.04 803.50
  A 0.52 0.52 0.0 0 1 431.56 803.00"
/>
<path stroke="#959595" vector-effect="non-scaling-stroke" d="
  M 1282.7932 544.4445
  A 37.87 37.87 0.0 0 0 1244.9894 506.5085
  L 639.7503 505.4522
  A 37.87 37.87 0.0 0 0 601.8143 543.2560
  L 601.1868 902.7955
  A 37.87 37.87 0.0 0 0 638.9906 940.7315
  L 1244.2297 941.7878
  A 37.87 37.87 0.0 0 0 1282.1657 903.9840
  L 1282.7932 544.4445"
/>
<path stroke="#959595" vector-effect="non-scaling-stroke" d="
  M 1220.40 578.68
  A 8.17 8.17 0.0 0 0 1212.23 570.51
  L 995.69 570.51
  A 8.17 8.17 0.0 0 0 987.52 578.68
  L 987.52 578.82
  A 8.17 8.17 0.0 0 0 995.69 586.99
  L 1212.23 586.99
  A 8.17 8.17 0.0 0 0 1220.40 578.82
  L 1220.40 578.68"
/>
<path stroke="#959595" vector-effect="non-scaling-stroke" d="
  M 791.33 618.50
  A 26.50 26.50 0.0 0 0 764.83 592.00
  L 684.05 592.00
  A 26.50 26.50 0.0 0 0 657.55 618.50
  L 657.55 682.70
  A 26.50 26.50 0.0 0 0 684.05 709.20
  L 764.83 709.20
  A 26.50 26.50 0.0 0 0 791.33 682.70
  L 791.33 618.50"
/>
<path stroke="#959595" vector-effect="non-scaling-stroke" d="
  M 674.7507 786.2195
  A 9.83 9.83 0.0 0 0 664.9035 776.4067
  L 661.1035 776.4133
  A 9.83 9.83 0.0 0 0 651.2907 786.2605
  L 651.3293 808.3805
  A 9.83 9.83 0.0 0 0 661.1765 818.1933
  L 664.9765 818.1867
  A 9.83 9.83 0.0 0 0 674.7893 808.3395
  L 674.7507 786.2195"
/>
<path stroke="#959595" vector-effect="non-scaling-stroke" d="
  M 703.6886 786.2509
  A 9.77 9.77 0.0 0 0 693.9528 776.4469
  L 690.0928 776.4334
  A 9.77 9.77 0.0 0 0 680.2888 786.1692
  L 680.2114 808.3491
  A 9.77 9.77 0.0 0 0 689.9472 818.1531
  L 693.8072 818.1666
  A 9.77 9.77 0.0 0 0 703.6112 808.4308
  L 703.6886 786.2509"
/>
<path stroke="#959595" vector-effect="non-scaling-stroke" d="
  M 818.98 786.29
  A 9.88 9.88 0.0 0 0 809.10 776.41
  L 805.38 776.41
  A 9.88 9.88 0.0 0 0 795.50 786.29
  L 795.50 808.31
  A 9.88 9.88 0.0 0 0 805.38 818.19
  L 809.10 818.19
  A 9.88 9.88 0.0 0 0 818.98 808.31
  L 818.98 786.29"
/>
<path stroke="#959595" vector-effect="non-scaling-stroke" d="
  M 876.49 786.05
  A 9.65 9.65 0.0 0 0 866.84 776.40
  L 862.92 776.40
  A 9.65 9.65 0.0 0 0 853.27 786.05
  L 853.27 808.53
  A 9.65 9.65 0.0 0 0 862.92 818.18
  L 866.84 818.18
  A 9.65 9.65 0.0 0 0 876.49 808.53
  L 876.49 786.05"
/>
<path stroke="#959595" vector-effect="non-scaling-stroke" d="
  M 963.2011 786.4594
  A 10.06 10.06 0.0 0 0 953.1236 776.4169
  L 949.5636 776.4231
  A 10.06 10.06 0.0 0 0 939.5211 786.5007
  L 939.5589 808.1406
  A 10.06 10.06 0.0 0 0 949.6364 818.1831
  L 953.1964 818.1769
  A 10.06 10.06 0.0 0 0 963.2389 808.0993
  L 963.2011 786.4594"
/>
<path stroke="#959595" vector-effect="non-scaling-stroke" d="
  M 1164.9091 786.3806
  A 9.92 9.92 0.0 0 0 1155.0064 776.4433
  L 1151.2464 776.4368
  A 9.92 9.92 0.0 0 0 1141.3091 786.3394
  L 1141.2709 808.2194
  A 9.92 9.92 0.0 0 0 1151.1736 818.1567
  L 1154.9336 818.1632
  A 9.92 9.92 0.0 0 0 1164.8709 808.2606
  L 1164.9091 786.3806"
/>
<path stroke="#959595" vector-effect="non-scaling-stroke" d="
  M 1193.7392 786.3005
  A 9.87 9.87 0.0 0 0 1183.8865 776.4133
  L 1180.1465 776.4068
  A 9.87 9.87 0.0 0 0 1170.2593 786.2595
  L 1170.2208 808.2995
  A 9.87 9.87 0.0 0 0 1180.0735 818.1867
  L 1183.8135 818.1932
  A 9.87 9.87 0.0 0 0 1193.7007 808.3405
  L 1193.7392 786.3005"
/>
<path stroke="#959595" vector-effect="non-scaling-stroke" d="
  M 732.4609 786.1493
  A 9.61 9.61 0.0 0 0 722.8175 776.5729
  L 718.6575 776.5874
  A 9.61 9.61 0.0 0 0 709.0811 786.2309
  L 709.1591 808.5707
  A 9.61 9.61 0.0 0 0 718.8025 818.1471
  L 722.9625 818.1326
  A 9.61 9.61 0.0 0 0 732.5389 808.4891
  L 732.4609 786.1493"
/>
<path stroke="#959595" vector-effect="non-scaling-stroke" d="
  M 761.2402 785.9897
  A 9.45 9.45 0.0 0 0 751.7737 776.5562
  L 747.4137 776.5638
  A 9.45 9.45 0.0 0 0 737.9802 786.0303
  L 738.0198 808.7303
  A 9.45 9.45 0.0 0 0 747.4863 818.1638
  L 751.8463 818.1562
  A 9.45 9.45 0.0 0 0 761.2798 808.6897
  L 761.2402 785.9897"
/>
<path stroke="#959595" vector-effect="non-scaling-stroke" d="
  M 847.7203 786.0897
  A 9.55 9.55 0.0 0 0 838.1537 776.5564
  L 833.9737 776.5637
  A 9.55 9.55 0.0 0 0 824.4404 786.1303
  L 824.4797 808.6303
  A 9.55 9.55 0.0 0 0 834.0463 818.1636
  L 838.2263 818.1563
  A 9.55 9.55 0.0 0 0 847.7596 808.5897
  L 847.7203 786.0897"
/>
<path stroke="#959595" vector-effect="non-scaling-stroke" d="
  M 905.4793 786.3405
  A 9.76 9.76 0.0 0 0 895.7363 776.5635
  L 891.7963 776.5566
  A 9.76 9.76 0.0 0 0 882.0193 786.2995
  L 881.9807 808.3795
  A 9.76 9.76 0.0 0 0 891.7237 818.1565
  L 895.6637 818.1634
  A 9.76 9.76 0.0 0 0 905.4407 808.4205
  L 905.4793 786.3405"
/>
<path stroke="#959595" vector-effect="non-scaling-stroke" d="
  M 991.9606 786.2195
  A 9.68 9.68 0.0 0 0 982.2637 776.5564
  L 978.1237 776.5636
  A 9.68 9.68 0.0 0 0 968.4606 786.2605
  L 968.4994 808.5005
  A 9.68 9.68 0.0 0 0 978.1963 818.1636
  L 982.3363 818.1564
  A 9.68 9.68 0.0 0 0 991.9994 808.4595
  L 991.9606 786.2195"
/>
<path stroke="#959595" vector-effect="non-scaling-stroke" d="
  M 1020.7214 786.2790
  A 9.76 9.76 0.0 0 0 1010.9274 776.5531
  L 1006.9274 776.5671
  A 9.76 9.76 0.0 0 0 997.2015 786.3611
  L 997.2786 808.4410
  A 9.76 9.76 0.0 0 0 1007.0726 818.1669
  L 1011.0726 818.1529
  A 9.76 9.76 0.0 0 0 1020.7985 808.3589
  L 1020.7214 786.2790"
/>
<path stroke="#959595" vector-effect="non-scaling-stroke" d="
  M 1049.4813 786.2691
  A 9.75 9.75 0.0 0 0 1039.6973 776.5531
  L 1035.6974 776.5671
  A 9.75 9.75 0.0 0 0 1025.9815 786.3511
  L 1026.0587 808.4709
  A 9.75 9.75 0.0 0 0 1035.8427 818.1869
  L 1039.8426 818.1729
  A 9.75 9.75 0.0 0 0 1049.5585 808.3889
  L 1049.4813 786.2691"
/>
<path stroke="#959595" vector-effect="non-scaling-stroke" d="
  M 1107.25 786.33
  A 9.78 9.78 0.0 0 0 1097.47 776.55
  L 1093.53 776.55
  A 9.78 9.78 0.0 0 0 1083.75 786.33
  L 1083.75 808.41
  A 9.78 9.78 0.0 0 0 1093.53 818.19
  L 1097.47 818.19
  A 9.78 9.78 0.0 0 0 1107.25 808.41
  L 1107.25 786.33"
/>
<path stroke="#959595" vector-effect="non-scaling-stroke" d="
  M 1136.01 786.27
  A 9.71 9.71 0.0 0 0 1126.30 776.56
  L 1122.22 776.56
  A 9.71 9.71 0.0 0 0 1112.51 786.27
  L 1112.51 808.45
  A 9.71 9.71 0.0 0 0 1122.22 818.16
  L 1126.30 818.16
  A 9.71 9.71 0.0 0 0 1136.01 808.45
  L 1136.01 786.27"
/>
<path stroke="#7da5e2" vector-effect="non-scaling-stroke" d="
  M 1146.32 866.58
  C 1146.19 874.74 1155.58 879.16 1161.79 882.56
  Q 1163.87 883.69 1163.47 886.02
  C 1162.16 893.59 1148.07 889.55 1143.96 887.70
  A 0.51 0.50 -71.9 0 0 1143.26 888.06
  L 1141.37 897.28
  A 0.67 0.66 -74.9 0 0 1141.80 898.04
  C 1153.05 901.96 1172.76 901.70 1176.02 887.29
  C 1178.36 876.95 1169.76 873.33 1162.34 868.89
  Q 1160.35 867.69 1159.55 866.60
  Q 1157.93 864.37 1160.27 862.91
  C 1165.58 859.63 1170.48 861.22 1175.87 862.88
  A 0.61 0.61 0.0 0 0 1176.65 862.42
  L 1178.46 853.71
  A 0.69 0.69 0.0 0 0 1178.01 852.91
  Q 1169.27 849.83 1160.19 851.92
  C 1153.13 853.54 1146.43 859.09 1146.32 866.58"
/>
<path stroke="#7da5e2" vector-effect="non-scaling-stroke" d="
  M 1083.00 862.82
  L 1092.04 898.75
  A 0.99 0.99 0.0 0 0 1093.00 899.50
  L 1104.66 899.50
  A 0.98 0.97 11.3 0 0 1105.56 898.91
  L 1125.02 852.43
  A 0.37 0.36 -78.9 0 0 1124.68 851.92
  L 1112.76 852.04
  A 0.72 0.71 -79.0 0 0 1112.10 852.49
  C 1108.02 862.73 1104.34 873.50 1099.49 883.39
  A 0.33 0.32 -48.8 0 1 1098.93 883.43
  L 1097.46 881.25"
/>
<path stroke="#fce07d" vector-effect="non-scaling-stroke" d="
  M 1097.46 881.25
  L 1098.21 880.64
  A 0.89 0.88 65.7 0 0 1098.53 879.78
  L 1093.90 855.85
  Q 1093.48 853.68 1091.43 852.83
  C 1087.39 851.16 1082.24 852.05 1079.08 851.94
  Q 1074.53 851.78 1068.04 851.66
  A 0.74 0.73 -86.2 0 0 1067.29 852.32
  L 1067.25 852.71
  A 0.35 0.35 0.0 0 0 1067.56 853.10
  Q 1078.05 854.22 1083.00 862.82"
/>
<path stroke="#808b66" vector-effect="non-scaling-stroke" d="
  M 1097.46 881.25
  L 1083.00 862.82"
/>
<path stroke="#7da5e2" vector-effect="non-scaling-stroke" d="
  M 1130.76 852.00
  A 0.32 0.32 0.0 0 0 1130.45 852.25
  L 1120.51 899.16
  A 0.32 0.32 0.0 0 0 1120.83 899.54
  L 1132.53 899.39
  A 0.32 0.32 0.0 0 0 1132.84 899.14
  L 1142.76 852.39
  A 0.32 0.32 0.0 0 0 1142.45 852.00
  L 1130.76 852.00"
/>
<path stroke="#7da5e2" vector-effect="non-scaling-stroke" d="
  M 1207.23 893.05
  L 1208.43 898.51
  A 1.22 1.22 0.0 0 0 1209.62 899.47
  L 1219.44 899.48
  A 0.50 0.50 0.0 0 0 1219.93 898.88
  L 1210.35 852.90
  A 1.14 1.14 0.0 0 0 1209.22 851.99
  L 1198.55 852.04
  Q 1196.82 852.04 1195.79 853.44
  Q 1194.29 855.47 1193.03 858.55
  Q 1184.85 878.52 1176.29 898.43
  A 0.79 0.79 0.0 0 0 1177.02 899.54
  L 1187.53 899.42
  A 1.83 1.81 10.0 0 0 1189.20 898.26
  L 1191.17 893.08
  A 0.91 0.90 10.2 0 1 1192.02 892.50
  L 1206.55 892.50
  A 0.70 0.70 0.0 0 1 1207.23 893.05"
/>
<path stroke="#959595" vector-effect="non-scaling-stroke" d="
  M 908.75 875.43
  A 8.17 8.17 0.0 0 0 900.58 867.26
  L 660.66 867.26
  A 8.17 8.17 0.0 0 0 652.49 875.43
  L 652.49 875.59
  A 8.17 8.17 0.0 0 0 660.66 883.76
  L 900.58 883.76
  A 8.17 8.17 0.0 0 0 908.75 875.59
  L 908.75 875.43"
/>
<path stroke="#987b19" vector-effect="non-scaling-stroke" d="
  M 694.73 613.55
  A 1.18 1.18 0.0 0 0 695.86 612.72
  L 698.90 603.02
  A 0.31 0.30 9.7 0 0 698.61 602.62
  C 687.00 602.17 673.89 600.35 668.89 613.02
  A 0.36 0.36 0.0 0 0 669.22 613.51
  L 694.73 613.55"
/>
<path stroke="#987b19" vector-effect="non-scaling-stroke" d="
  M 740.99 602.51
  L 710.63 602.49
  A 0.76 0.76 0.0 0 0 709.91 603.00
  Q 696.62 640.22 713.21 675.95
  A 0.96 0.95 77.2 0 0 714.07 676.50
  L 737.74 676.50
  A 0.76 0.75 -78.0 0 0 738.43 676.05
  Q 754.75 640.23 741.66 602.98
  A 0.71 0.71 0.0 0 0 740.99 602.51"
/>
<path stroke="#987b19" vector-effect="non-scaling-stroke" d="
  M 779.86 612.99
  C 776.07 601.10 762.33 601.88 753.18 602.68
  A 0.45 0.45 0.0 0 0 752.78 603.26
  L 755.66 613.02
  A 0.68 0.68 0.0 0 0 756.31 613.50
  L 779.48 613.50
  A 0.40 0.39 -8.6 0 0 779.86 612.99"
/>
<path stroke="#987b19" vector-effect="non-scaling-stroke" d="
  M 693.7179 624.5322
  A 0.26 0.26 0.0 0 0 693.4583 624.2718
  L 668.5184 624.2283
  A 0.26 0.26 0.0 0 0 668.2579 624.4878
  L 668.2221 644.9878
  A 0.26 0.26 0.0 0 0 668.4817 645.2482
  L 693.4216 645.2917
  A 0.26 0.26 0.0 0 0 693.6821 645.0322
  L 693.7179 624.5322"
/>
<path stroke="#987b19" vector-effect="non-scaling-stroke" d="
  M 780.77 624.51
  A 0.26 0.26 0.0 0 0 780.51 624.25
  L 758.13 624.25
  A 0.26 0.26 0.0 0 0 757.87 624.51
  L 757.87 644.99
  A 0.26 0.26 0.0 0 0 758.13 645.25
  L 780.51 645.25
  A 0.26 0.26 0.0 0 0 780.77 644.99
  L 780.77 624.51"
/>
<path stroke="#987b19" vector-effect="non-scaling-stroke" d="
  M 694.99 655.73
  C 686.28 656.46 677.52 655.47 668.74 655.86
  A 0.55 0.54 88.9 0 0 668.22 656.41
  L 668.22 676.02
  A 0.49 0.48 0.0 0 0 668.71 676.50
  L 701.33 676.50
  A 0.42 0.42 0.0 0 0 701.72 675.92
  Q 697.72 666.35 695.61 656.19
  A 0.59 0.59 0.0 0 0 694.99 655.73"
/>
<path stroke="#987b19" vector-effect="non-scaling-stroke" d="
  M 763.56 655.94
  C 761.84 655.94 758.98 655.56 756.59 655.85
  A 0.79 0.78 -86.9 0 0 755.91 656.47
  Q 753.72 666.45 749.73 675.85
  A 0.47 0.47 0.0 0 0 750.16 676.50
  L 780.25 676.50
  A 0.51 0.50 -89.4 0 0 780.75 676.00
  L 780.76 656.58
  A 0.48 0.47 -89.4 0 0 780.30 656.10
  Q 771.96 655.97 763.56 655.94"
/>
<path stroke="#987b19" vector-effect="non-scaling-stroke" d="
  M 668.71 687.48
  C 670.75 694.33 676.87 698.79 684.01 698.79
  Q 722.61 698.78 761.22 698.74
  C 770.69 698.73 776.18 697.18 779.90 688.48
  A 1.01 1.01 0.0 0 0 779.02 687.07
  C 772.08 686.79 763.58 687.21 757.98 687.22
  Q 713.52 687.27 669.07 686.99
  A 0.38 0.38 0.0 0 0 668.71 687.48"
/>
<path stroke="#5d6e57" vector-effect="non-scaling-stroke" d="
  M 277.43 805.26
  C 277.67 777.64 282.96 737.63 246.55 730.44
  C 214.19 724.05 194.36 743.87 194.34 775.50
  Q 194.32 796.80 194.41 806.38
  C 194.65 830.87 206.45 850.12 232.99 851.43
  C 263.85 852.95 277.20 833.00 277.43 805.26"
/>
<path stroke="#5d6e57" vector-effect="non-scaling-stroke" d="
  M 512.51 770.44
  C 512.01 744.09 498.56 724.06 470.03 725.20
  C 443.83 726.25 430.74 746.23 431.01 771.06
  A 0.45 0.45 0.0 0 0 431.46 771.50
  L 511.46 771.50
  A 1.05 1.04 -0.5 0 0 512.51 770.44"
/>
<path stroke="#959595" vector-effect="non-scaling-stroke" d="
  M 666.89 785.51
  A 3.17 3.17 0.0 0 0 663.72 782.34
  L 662.44 782.34
  A 3.17 3.17 0.0 0 0 659.27 785.51
  L 659.27 809.23
  A 3.17 3.17 0.0 0 0 662.44 812.40
  L 663.72 812.40
  A 3.17 3.17 0.0 0 0 666.89 809.23
  L 666.89 785.51"
/>
<path stroke="#959595" vector-effect="non-scaling-stroke" d="
  M 695.73 785.18
  A 2.84 2.84 0.0 0 0 692.89 782.34
  L 691.09 782.34
  A 2.84 2.84 0.0 0 0 688.25 785.18
  L 688.25 809.58
  A 2.84 2.84 0.0 0 0 691.09 812.42
  L 692.89 812.42
  A 2.84 2.84 0.0 0 0 695.73 809.58
  L 695.73 785.18"
/>
<path stroke="#959595" vector-effect="non-scaling-stroke" d="
  M 810.99 785.38
  A 3.06 3.06 0.0 0 0 807.93 782.32
  L 806.57 782.32
  A 3.06 3.06 0.0 0 0 803.51 785.38
  L 803.51 809.34
  A 3.06 3.06 0.0 0 0 806.57 812.40
  L 807.93 812.40
  A 3.06 3.06 0.0 0 0 810.99 809.34
  L 810.99 785.38"
/>
<path stroke="#959595" vector-effect="non-scaling-stroke" d="
  M 868.75 785.64
  A 3.18 3.18 0.0 0 0 865.57 782.46
  L 864.19 782.46
  A 3.18 3.18 0.0 0 0 861.01 785.64
  L 861.01 809.22
  A 3.18 3.18 0.0 0 0 864.19 812.40
  L 865.57 812.40
  A 3.18 3.18 0.0 0 0 868.75 809.22
  L 868.75 785.64"
/>
<path stroke="#959595" vector-effect="non-scaling-stroke" d="
  M 955.1788 785.5567
  A 3.23 3.23 0.0 0 0 951.9375 782.3380
  L 950.7575 782.3422
  A 3.23 3.23 0.0 0 0 947.5388 785.5834
  L 947.6212 809.1833
  A 3.23 3.23 0.0 0 0 950.8625 812.4020
  L 952.0425 812.3978
  A 3.23 3.23 0.0 0 0 955.2612 809.1566
  L 955.1788 785.5567"
/>
<path stroke="#959595" vector-effect="non-scaling-stroke" d="
  M 1156.76 785.46
  A 3.16 3.16 0.0 0 0 1153.60 782.30
  L 1152.44 782.30
  A 3.16 3.16 0.0 0 0 1149.28 785.46
  L 1149.28 809.28
  A 3.16 3.16 0.0 0 0 1152.44 812.44
  L 1153.60 812.44
  A 3.16 3.16 0.0 0 0 1156.76 809.28
  L 1156.76 785.46"
/>
<path stroke="#959595" vector-effect="non-scaling-stroke" d="
  M 1185.74 785.12
  A 2.61 2.61 0.0 0 0 1183.13 782.51
  L 1180.85 782.51
  A 2.61 2.61 0.0 0 0 1178.24 785.12
  L 1178.24 809.62
  A 2.61 2.61 0.0 0 0 1180.85 812.23
  L 1183.13 812.23
  A 2.61 2.61 0.0 0 0 1185.74 809.62
  L 1185.74 785.12"
/>
<path stroke="#959595" vector-effect="non-scaling-stroke" d="
  M 724.7508 785.5268
  A 3.06 3.06 0.0 0 0 721.6961 782.4614
  L 720.0761 782.4586
  A 3.06 3.06 0.0 0 0 717.0108 785.5133
  L 716.9692 809.3532
  A 3.06 3.06 0.0 0 0 720.0239 812.4186
  L 721.6439 812.4214
  A 3.06 3.06 0.0 0 0 724.7092 809.3667
  L 724.7508 785.5268"
/>
<path stroke="#959595" vector-effect="non-scaling-stroke" d="
  M 753.49 785.81
  A 3.54 3.54 0.0 0 0 749.95 782.27
  L 749.29 782.27
  A 3.54 3.54 0.0 0 0 745.75 785.81
  L 745.75 808.91
  A 3.54 3.54 0.0 0 0 749.29 812.45
  L 749.95 812.45
  A 3.54 3.54 0.0 0 0 753.49 808.91
  L 753.49 785.81"
/>
<path stroke="#959595" vector-effect="non-scaling-stroke" d="
  M 839.99 785.79
  A 3.51 3.51 0.0 0 0 836.48 782.28
  L 835.76 782.28
  A 3.51 3.51 0.0 0 0 832.25 785.79
  L 832.25 808.97
  A 3.51 3.51 0.0 0 0 835.76 812.48
  L 836.48 812.48
  A 3.51 3.51 0.0 0 0 839.99 808.97
  L 839.99 785.79"
/>
<path stroke="#959595" vector-effect="non-scaling-stroke" d="
  M 897.50 785.62
  A 3.34 3.34 0.0 0 0 894.16 782.28
  L 893.12 782.28
  A 3.34 3.34 0.0 0 0 889.78 785.62
  L 889.78 809.08
  A 3.34 3.34 0.0 0 0 893.12 812.42
  L 894.16 812.42
  A 3.34 3.34 0.0 0 0 897.50 809.08
  L 897.50 785.62"
/>
<path stroke="#959595" vector-effect="non-scaling-stroke" d="
  M 983.9488 785.5769
  A 3.26 3.26 0.0 0 0 980.6775 782.3283
  L 979.6375 782.3319
  A 3.26 3.26 0.0 0 0 976.3889 785.6033
  L 976.4712 809.1831
  A 3.26 3.26 0.0 0 0 979.7425 812.4317
  L 980.7825 812.4281
  A 3.26 3.26 0.0 0 0 984.0311 809.1567
  L 983.9488 785.5769"
/>
<path stroke="#959595" vector-effect="non-scaling-stroke" d="
  M 1012.74 785.33
  A 2.86 2.86 0.0 0 0 1009.88 782.47
  L 1008.12 782.47
  A 2.86 2.86 0.0 0 0 1005.26 785.33
  L 1005.26 809.51
  A 2.86 2.86 0.0 0 0 1008.12 812.37
  L 1009.88 812.37
  A 2.86 2.86 0.0 0 0 1012.74 809.51
  L 1012.74 785.33"
/>
<path stroke="#959595" vector-effect="non-scaling-stroke" d="
  M 1041.50 785.20
  A 2.86 2.86 0.0 0 0 1038.64 782.34
  L 1036.88 782.34
  A 2.86 2.86 0.0 0 0 1034.02 785.20
  L 1034.02 809.52
  A 2.86 2.86 0.0 0 0 1036.88 812.38
  L 1038.64 812.38
  A 2.86 2.86 0.0 0 0 1041.50 809.52
  L 1041.50 785.20"
/>
<path stroke="#959595" vector-effect="non-scaling-stroke" d="
  M 1099.24 785.34
  A 3.02 3.02 0.0 0 0 1096.22 782.32
  L 1094.76 782.32
  A 3.02 3.02 0.0 0 0 1091.74 785.34
  L 1091.74 809.24
  A 3.02 3.02 0.0 0 0 1094.76 812.26
  L 1096.22 812.26
  A 3.02 3.02 0.0 0 0 1099.24 809.24
  L 1099.24 785.34"
/>
<path stroke="#959595" vector-effect="non-scaling-stroke" d="
  M 1128.0293 785.5334
  A 3.19 3.19 0.0 0 0 1124.8338 782.3490
  L 1123.6738 782.3510
  A 3.19 3.19 0.0 0 0 1120.4893 785.5466
  L 1120.5307 809.2266
  A 3.19 3.19 0.0 0 0 1123.7262 812.4110
  L 1124.8862 812.4090
  A 3.19 3.19 0.0 0 0 1128.0707 809.2134
  L 1128.0293 785.5334"
/>
<path stroke="#7da5e2" vector-effect="non-scaling-stroke" d="
  M 1195.35 881.79
  A 0.33 0.33 0.0 0 0 1195.65 882.23
  L 1204.74 882.79
  A 0.33 0.33 0.0 0 0 1205.08 882.39
  L 1201.54 865.68
  A 0.33 0.33 0.0 0 0 1200.91 865.64
  L 1195.35 881.79"
/>
</g>
<path fill="#badbad" d="
  M 403.81 0.01
  L 1044.31 0.00
  C 1110.70 1.24 1173.38 3.67 1234.48 21.59
  Q 1251.42 26.56 1268.73 34.79
  C 1336.88 67.18 1390.17 122.90 1419.06 192.45
  Q 1422.72 201.25 1425.78 211.29
  C 1445.26 275.13 1447.18 343.48 1448.00 410.06
  L 1448.00 1043.81
  L 1447.90 1043.81
  A 0.11 0.11 0.0 0 0 1447.79 1043.92
  C 1447.28 1108.51 1444.35 1173.26 1426.18 1235.47
  Q 1423.58 1244.35 1420.11 1252.90
  C 1388.88 1329.82 1327.88 1390.67 1250.59 1421.01
  Q 1241.85 1424.45 1231.64 1427.34
  C 1170.54 1444.65 1107.86 1446.66 1044.44 1448.00
  L 403.44 1448.00
  Q 389.84 1447.57 376.25 1447.29
  C 322.56 1446.16 269.08 1442.10 217.14 1427.56
  Q 206.98 1424.72 198.16 1421.29
  C 119.04 1390.53 56.60 1327.50 26.15 1248.38
  Q 22.80 1239.66 19.97 1229.37
  C 3.25 1168.70 1.28 1106.76 0.00 1044.44
  L 0.00 411.19
  L 0.21 403.50
  Q 0.36 347.15 5.02 300.01
  Q 9.10 258.61 20.05 218.52
  Q 23.10 207.34 27.37 196.59
  C 57.71 120.31 117.18 60.12 192.98 28.68
  Q 203.03 24.51 213.50 21.49
  C 275.69 3.52 339.55 1.09 403.81 0.01
  Z
  M 586.78 913.76
  C 590.88 935.55 607.88 951.55 629.26 956.39
  Q 635.18 957.73 645.88 957.73
  C 842.92 957.74 1039.97 957.73 1237.00 957.74
  Q 1248.24 957.74 1254.26 956.38
  C 1280.68 950.39 1298.24 929.31 1298.24 902.00
  Q 1298.27 727.16 1298.24 552.31
  Q 1298.23 538.52 1296.92 532.41
  C 1292.33 511.17 1274.82 494.59 1253.45 490.92
  Q 1248.13 490.00 1233.50 490.00
  Q 939.47 489.99 645.45 490.01
  Q 633.83 490.01 627.80 491.40
  C 608.08 495.93 592.47 510.90 587.41 530.60
  C 585.64 537.46 585.52 546.38 585.51 553.50
  Q 585.45 616.04 585.52 875.75
  C 585.52 887.81 584.77 903.11 586.78 913.76
  Z
  M 276.46 856.97
  A 0.78 0.77 -81.3 0 1 277.00 857.71
  L 277.00 891.11
  A 0.61 0.61 0.0 0 0 277.61 891.72
  L 327.63 891.74
  A 0.62 0.62 0.0 0 0 328.25 891.12
  L 328.25 615.03
  A 0.54 0.53 0.6 0 0 327.72 614.50
  L 276.77 614.48
  A 0.45 0.45 0.0 0 0 276.32 614.93
  Q 276.14 680.29 276.27 718.50
  Q 276.28 721.99 276.00 724.40
  A 0.69 0.68 -86.3 0 1 275.31 725.01
  L 273.14 724.97
  A 0.82 0.82 0.0 0 1 272.37 724.40
  Q 263.01 695.43 232.96 689.28
  C 187.28 679.95 151.11 707.04 145.24 752.50
  Q 143.15 768.64 143.43 787.11
  C 143.66 802.02 143.02 821.26 146.53 836.74
  C 155.72 877.32 184.70 898.12 226.46 893.97
  Q 261.40 890.51 272.72 858.43
  C 273.48 856.29 274.51 856.38 276.46 856.97
  Z
  M 431.56 803.00
  L 559.97 803.00
  A 0.47 0.46 90.0 0 0 560.43 802.53
  C 560.26 787.91 561.11 771.05 559.16 758.00
  C 550.77 701.68 499.55 677.45 447.58 689.52
  C 410.32 698.17 386.89 725.41 382.73 764.03
  C 381.70 773.59 382.40 790.93 382.40 807.91
  C 382.39 868.53 423.28 898.08 480.50 895.68
  C 501.40 894.81 521.67 888.34 537.98 874.97
  Q 555.43 860.65 560.31 836.84
  A 1.33 1.33 0.0 0 0 559.01 835.25
  L 514.08 835.25
  A 0.70 0.69 -79.6 0 0 513.43 835.70
  Q 509.80 845.56 501.71 850.25
  C 475.91 865.24 437.37 857.50 431.79 823.72
  Q 430.47 815.74 431.04 803.50
  A 0.52 0.52 0.0 0 1 431.56 803.00
  Z"
/>
<path fill="#303030" d="
  M 0.00 403.44
  L 0.21 403.50
  L 0.00 411.19
  L 0.00 403.44
  Z"
/>
<path fill="#303030" d="
  M 629.26 956.39
  C 607.88 951.55 590.88 935.55 586.78 913.76
  C 584.77 903.11 585.52 887.81 585.52 875.75
  Q 585.45 616.04 585.51 553.50
  C 585.52 546.38 585.64 537.46 587.41 530.60
  C 592.47 510.90 608.08 495.93 627.80 491.40
  Q 633.83 490.01 645.45 490.01
  Q 939.47 489.99 1233.50 490.00
  Q 1248.13 490.00 1253.45 490.92
  C 1274.82 494.59 1292.33 511.17 1296.92 532.41
  Q 1298.23 538.52 1298.24 552.31
  Q 1298.27 727.16 1298.24 902.00
  C 1298.24 929.31 1280.68 950.39 1254.26 956.38
  Q 1248.24 957.74 1237.00 957.74
  C 1039.97 957.73 842.92 957.74 645.88 957.73
  Q 635.18 957.73 629.26 956.39
  Z
  M 1282.7932 544.4445
  A 37.87 37.87 0.0 0 0 1244.9894 506.5085
  L 639.7503 505.4522
  A 37.87 37.87 0.0 0 0 601.8143 543.2560
  L 601.1868 902.7955
  A 37.87 37.87 0.0 0 0 638.9906 940.7315
  L 1244.2297 941.7878
  A 37.87 37.87 0.0 0 0 1282.1657 903.9840
  L 1282.7932 544.4445
  Z"
/>
<path fill="#f9f9f9" d="
  M 1282.1657 903.9840
  A 37.87 37.87 0.0 0 1 1244.2297 941.7878
  L 638.9906 940.7315
  A 37.87 37.87 0.0 0 1 601.1868 902.7955
  L 601.8143 543.2560
  A 37.87 37.87 0.0 0 1 639.7503 505.4522
  L 1244.9894 506.5085
  A 37.87 37.87 0.0 0 1 1282.7932 544.4445
  L 1282.1657 903.9840
  Z
  M 1220.40 578.68
  A 8.17 8.17 0.0 0 0 1212.23 570.51
  L 995.69 570.51
  A 8.17 8.17 0.0 0 0 987.52 578.68
  L 987.52 578.82
  A 8.17 8.17 0.0 0 0 995.69 586.99
  L 1212.23 586.99
  A 8.17 8.17 0.0 0 0 1220.40 578.82
  L 1220.40 578.68
  Z
  M 791.33 618.50
  A 26.50 26.50 0.0 0 0 764.83 592.00
  L 684.05 592.00
  A 26.50 26.50 0.0 0 0 657.55 618.50
  L 657.55 682.70
  A 26.50 26.50 0.0 0 0 684.05 709.20
  L 764.83 709.20
  A 26.50 26.50 0.0 0 0 791.33 682.70
  L 791.33 618.50
  Z
  M 674.7507 786.2195
  A 9.83 9.83 0.0 0 0 664.9035 776.4067
  L 661.1035 776.4133
  A 9.83 9.83 0.0 0 0 651.2907 786.2605
  L 651.3293 808.3805
  A 9.83 9.83 0.0 0 0 661.1765 818.1933
  L 664.9765 818.1867
  A 9.83 9.83 0.0 0 0 674.7893 808.3395
  L 674.7507 786.2195
  Z
  M 703.6886 786.2509
  A 9.77 9.77 0.0 0 0 693.9528 776.4469
  L 690.0928 776.4334
  A 9.77 9.77 0.0 0 0 680.2888 786.1692
  L 680.2114 808.3491
  A 9.77 9.77 0.0 0 0 689.9472 818.1531
  L 693.8072 818.1666
  A 9.77 9.77 0.0 0 0 703.6112 808.4308
  L 703.6886 786.2509
  Z
  M 818.98 786.29
  A 9.88 9.88 0.0 0 0 809.10 776.41
  L 805.38 776.41
  A 9.88 9.88 0.0 0 0 795.50 786.29
  L 795.50 808.31
  A 9.88 9.88 0.0 0 0 805.38 818.19
  L 809.10 818.19
  A 9.88 9.88 0.0 0 0 818.98 808.31
  L 818.98 786.29
  Z
  M 876.49 786.05
  A 9.65 9.65 0.0 0 0 866.84 776.40
  L 862.92 776.40
  A 9.65 9.65 0.0 0 0 853.27 786.05
  L 853.27 808.53
  A 9.65 9.65 0.0 0 0 862.92 818.18
  L 866.84 818.18
  A 9.65 9.65 0.0 0 0 876.49 808.53
  L 876.49 786.05
  Z
  M 963.2011 786.4594
  A 10.06 10.06 0.0 0 0 953.1236 776.4169
  L 949.5636 776.4231
  A 10.06 10.06 0.0 0 0 939.5211 786.5007
  L 939.5589 808.1406
  A 10.06 10.06 0.0 0 0 949.6364 818.1831
  L 953.1964 818.1769
  A 10.06 10.06 0.0 0 0 963.2389 808.0993
  L 963.2011 786.4594
  Z
  M 1164.9091 786.3806
  A 9.92 9.92 0.0 0 0 1155.0064 776.4433
  L 1151.2464 776.4368
  A 9.92 9.92 0.0 0 0 1141.3091 786.3394
  L 1141.2709 808.2194
  A 9.92 9.92 0.0 0 0 1151.1736 818.1567
  L 1154.9336 818.1632
  A 9.92 9.92 0.0 0 0 1164.8709 808.2606
  L 1164.9091 786.3806
  Z
  M 1193.7392 786.3005
  A 9.87 9.87 0.0 0 0 1183.8865 776.4133
  L 1180.1465 776.4068
  A 9.87 9.87 0.0 0 0 1170.2593 786.2595
  L 1170.2208 808.2995
  A 9.87 9.87 0.0 0 0 1180.0735 818.1867
  L 1183.8135 818.1932
  A 9.87 9.87 0.0 0 0 1193.7007 808.3405
  L 1193.7392 786.3005
  Z
  M 732.4609 786.1493
  A 9.61 9.61 0.0 0 0 722.8175 776.5729
  L 718.6575 776.5874
  A 9.61 9.61 0.0 0 0 709.0811 786.2309
  L 709.1591 808.5707
  A 9.61 9.61 0.0 0 0 718.8025 818.1471
  L 722.9625 818.1326
  A 9.61 9.61 0.0 0 0 732.5389 808.4891
  L 732.4609 786.1493
  Z
  M 761.2402 785.9897
  A 9.45 9.45 0.0 0 0 751.7737 776.5562
  L 747.4137 776.5638
  A 9.45 9.45 0.0 0 0 737.9802 786.0303
  L 738.0198 808.7303
  A 9.45 9.45 0.0 0 0 747.4863 818.1638
  L 751.8463 818.1562
  A 9.45 9.45 0.0 0 0 761.2798 808.6897
  L 761.2402 785.9897
  Z
  M 847.7203 786.0897
  A 9.55 9.55 0.0 0 0 838.1537 776.5564
  L 833.9737 776.5637
  A 9.55 9.55 0.0 0 0 824.4404 786.1303
  L 824.4797 808.6303
  A 9.55 9.55 0.0 0 0 834.0463 818.1636
  L 838.2263 818.1563
  A 9.55 9.55 0.0 0 0 847.7596 808.5897
  L 847.7203 786.0897
  Z
  M 905.4793 786.3405
  A 9.76 9.76 0.0 0 0 895.7363 776.5635
  L 891.7963 776.5566
  A 9.76 9.76 0.0 0 0 882.0193 786.2995
  L 881.9807 808.3795
  A 9.76 9.76 0.0 0 0 891.7237 818.1565
  L 895.6637 818.1634
  A 9.76 9.76 0.0 0 0 905.4407 808.4205
  L 905.4793 786.3405
  Z
  M 991.9606 786.2195
  A 9.68 9.68 0.0 0 0 982.2637 776.5564
  L 978.1237 776.5636
  A 9.68 9.68 0.0 0 0 968.4606 786.2605
  L 968.4994 808.5005
  A 9.68 9.68 0.0 0 0 978.1963 818.1636
  L 982.3363 818.1564
  A 9.68 9.68 0.0 0 0 991.9994 808.4595
  L 991.9606 786.2195
  Z
  M 1020.7214 786.2790
  A 9.76 9.76 0.0 0 0 1010.9274 776.5531
  L 1006.9274 776.5671
  A 9.76 9.76 0.0 0 0 997.2015 786.3611
  L 997.2786 808.4410
  A 9.76 9.76 0.0 0 0 1007.0726 818.1669
  L 1011.0726 818.1529
  A 9.76 9.76 0.0 0 0 1020.7985 808.3589
  L 1020.7214 786.2790
  Z
  M 1049.4813 786.2691
  A 9.75 9.75 0.0 0 0 1039.6973 776.5531
  L 1035.6974 776.5671
  A 9.75 9.75 0.0 0 0 1025.9815 786.3511
  L 1026.0587 808.4709
  A 9.75 9.75 0.0 0 0 1035.8427 818.1869
  L 1039.8426 818.1729
  A 9.75 9.75 0.0 0 0 1049.5585 808.3889
  L 1049.4813 786.2691
  Z
  M 1107.25 786.33
  A 9.78 9.78 0.0 0 0 1097.47 776.55
  L 1093.53 776.55
  A 9.78 9.78 0.0 0 0 1083.75 786.33
  L 1083.75 808.41
  A 9.78 9.78 0.0 0 0 1093.53 818.19
  L 1097.47 818.19
  A 9.78 9.78 0.0 0 0 1107.25 808.41
  L 1107.25 786.33
  Z
  M 1136.01 786.27
  A 9.71 9.71 0.0 0 0 1126.30 776.56
  L 1122.22 776.56
  A 9.71 9.71 0.0 0 0 1112.51 786.27
  L 1112.51 808.45
  A 9.71 9.71 0.0 0 0 1122.22 818.16
  L 1126.30 818.16
  A 9.71 9.71 0.0 0 0 1136.01 808.45
  L 1136.01 786.27
  Z
  M 1146.32 866.58
  C 1146.19 874.74 1155.58 879.16 1161.79 882.56
  Q 1163.87 883.69 1163.47 886.02
  C 1162.16 893.59 1148.07 889.55 1143.96 887.70
  A 0.51 0.50 -71.9 0 0 1143.26 888.06
  L 1141.37 897.28
  A 0.67 0.66 -74.9 0 0 1141.80 898.04
  C 1153.05 901.96 1172.76 901.70 1176.02 887.29
  C 1178.36 876.95 1169.76 873.33 1162.34 868.89
  Q 1160.35 867.69 1159.55 866.60
  Q 1157.93 864.37 1160.27 862.91
  C 1165.58 859.63 1170.48 861.22 1175.87 862.88
  A 0.61 0.61 0.0 0 0 1176.65 862.42
  L 1178.46 853.71
  A 0.69 0.69 0.0 0 0 1178.01 852.91
  Q 1169.27 849.83 1160.19 851.92
  C 1153.13 853.54 1146.43 859.09 1146.32 866.58
  Z
  M 1083.00 862.82
  L 1092.04 898.75
  A 0.99 0.99 0.0 0 0 1093.00 899.50
  L 1104.66 899.50
  A 0.98 0.97 11.3 0 0 1105.56 898.91
  L 1125.02 852.43
  A 0.37 0.36 -78.9 0 0 1124.68 851.92
  L 1112.76 852.04
  A 0.72 0.71 -79.0 0 0 1112.10 852.49
  C 1108.02 862.73 1104.34 873.50 1099.49 883.39
  A 0.33 0.32 -48.8 0 1 1098.93 883.43
  L 1097.46 881.25
  L 1098.21 880.64
  A 0.89 0.88 65.7 0 0 1098.53 879.78
  L 1093.90 855.85
  Q 1093.48 853.68 1091.43 852.83
  C 1087.39 851.16 1082.24 852.05 1079.08 851.94
  Q 1074.53 851.78 1068.04 851.66
  A 0.74 0.73 -86.2 0 0 1067.29 852.32
  L 1067.25 852.71
  A 0.35 0.35 0.0 0 0 1067.56 853.10
  Q 1078.05 854.22 1083.00 862.82
  Z
  M 1130.76 852.00
  A 0.32 0.32 0.0 0 0 1130.45 852.25
  L 1120.51 899.16
  A 0.32 0.32 0.0 0 0 1120.83 899.54
  L 1132.53 899.39
  A 0.32 0.32 0.0 0 0 1132.84 899.14
  L 1142.76 852.39
  A 0.32 0.32 0.0 0 0 1142.45 852.00
  L 1130.76 852.00
  Z
  M 1207.23 893.05
  L 1208.43 898.51
  A 1.22 1.22 0.0 0 0 1209.62 899.47
  L 1219.44 899.48
  A 0.50 0.50 0.0 0 0 1219.93 898.88
  L 1210.35 852.90
  A 1.14 1.14 0.0 0 0 1209.22 851.99
  L 1198.55 852.04
  Q 1196.82 852.04 1195.79 853.44
  Q 1194.29 855.47 1193.03 858.55
  Q 1184.85 878.52 1176.29 898.43
  A 0.79 0.79 0.0 0 0 1177.02 899.54
  L 1187.53 899.42
  A 1.83 1.81 10.0 0 0 1189.20 898.26
  L 1191.17 893.08
  A 0.91 0.90 10.2 0 1 1192.02 892.50
  L 1206.55 892.50
  A 0.70 0.70 0.0 0 1 1207.23 893.05
  Z
  M 908.75 875.43
  A 8.17 8.17 0.0 0 0 900.58 867.26
  L 660.66 867.26
  A 8.17 8.17 0.0 0 0 652.49 875.43
  L 652.49 875.59
  A 8.17 8.17 0.0 0 0 660.66 883.76
  L 900.58 883.76
  A 8.17 8.17 0.0 0 0 908.75 875.59
  L 908.75 875.43
  Z"
/>
<rect fill="#303030" x="987.52" y="570.51" width="232.88" height="16.48" rx="8.17"/>
<path fill="#303030" d="
  M 791.33 682.70
  A 26.50 26.50 0.0 0 1 764.83 709.20
  L 684.05 709.20
  A 26.50 26.50 0.0 0 1 657.55 682.70
  L 657.55 618.50
  A 26.50 26.50 0.0 0 1 684.05 592.00
  L 764.83 592.00
  A 26.50 26.50 0.0 0 1 791.33 618.50
  L 791.33 682.70
  Z
  M 694.73 613.55
  A 1.18 1.18 0.0 0 0 695.86 612.72
  L 698.90 603.02
  A 0.31 0.30 9.7 0 0 698.61 602.62
  C 687.00 602.17 673.89 600.35 668.89 613.02
  A 0.36 0.36 0.0 0 0 669.22 613.51
  L 694.73 613.55
  Z
  M 740.99 602.51
  L 710.63 602.49
  A 0.76 0.76 0.0 0 0 709.91 603.00
  Q 696.62 640.22 713.21 675.95
  A 0.96 0.95 77.2 0 0 714.07 676.50
  L 737.74 676.50
  A 0.76 0.75 -78.0 0 0 738.43 676.05
  Q 754.75 640.23 741.66 602.98
  A 0.71 0.71 0.0 0 0 740.99 602.51
  Z
  M 779.86 612.99
  C 776.07 601.10 762.33 601.88 753.18 602.68
  A 0.45 0.45 0.0 0 0 752.78 603.26
  L 755.66 613.02
  A 0.68 0.68 0.0 0 0 756.31 613.50
  L 779.48 613.50
  A 0.40 0.39 -8.6 0 0 779.86 612.99
  Z
  M 693.7179 624.5322
  A 0.26 0.26 0.0 0 0 693.4583 624.2718
  L 668.5184 624.2283
  A 0.26 0.26 0.0 0 0 668.2579 624.4878
  L 668.2221 644.9878
  A 0.26 0.26 0.0 0 0 668.4817 645.2482
  L 693.4216 645.2917
  A 0.26 0.26 0.0 0 0 693.6821 645.0322
  L 693.7179 624.5322
  Z
  M 780.77 624.51
  A 0.26 0.26 0.0 0 0 780.51 624.25
  L 758.13 624.25
  A 0.26 0.26 0.0 0 0 757.87 624.51
  L 757.87 644.99
  A 0.26 0.26 0.0 0 0 758.13 645.25
  L 780.51 645.25
  A 0.26 0.26 0.0 0 0 780.77 644.99
  L 780.77 624.51
  Z
  M 694.99 655.73
  C 686.28 656.46 677.52 655.47 668.74 655.86
  A 0.55 0.54 88.9 0 0 668.22 656.41
  L 668.22 676.02
  A 0.49 0.48 0.0 0 0 668.71 676.50
  L 701.33 676.50
  A 0.42 0.42 0.0 0 0 701.72 675.92
  Q 697.72 666.35 695.61 656.19
  A 0.59 0.59 0.0 0 0 694.99 655.73
  Z
  M 763.56 655.94
  C 761.84 655.94 758.98 655.56 756.59 655.85
  A 0.79 0.78 -86.9 0 0 755.91 656.47
  Q 753.72 666.45 749.73 675.85
  A 0.47 0.47 0.0 0 0 750.16 676.50
  L 780.25 676.50
  A 0.51 0.50 -89.4 0 0 780.75 676.00
  L 780.76 656.58
  A 0.48 0.47 -89.4 0 0 780.30 656.10
  Q 771.96 655.97 763.56 655.94
  Z
  M 668.71 687.48
  C 670.75 694.33 676.87 698.79 684.01 698.79
  Q 722.61 698.78 761.22 698.74
  C 770.69 698.73 776.18 697.18 779.90 688.48
  A 1.01 1.01 0.0 0 0 779.02 687.07
  C 772.08 686.79 763.58 687.21 757.98 687.22
  Q 713.52 687.27 669.07 686.99
  A 0.38 0.38 0.0 0 0 668.71 687.48
  Z"
/>
<path fill="#ffc601" d="
  M 694.73 613.55
  L 669.22 613.51
  A 0.36 0.36 0.0 0 1 668.89 613.02
  C 673.89 600.35 687.00 602.17 698.61 602.62
  A 0.31 0.30 9.7 0 1 698.90 603.02
  L 695.86 612.72
  A 1.18 1.18 0.0 0 1 694.73 613.55
  Z"
/>
<path fill="#ffc601" d="
  M 740.99 602.51
  A 0.71 0.71 0.0 0 1 741.66 602.98
  Q 754.75 640.23 738.43 676.05
  A 0.76 0.75 -78.0 0 1 737.74 676.50
  L 714.07 676.50
  A 0.96 0.95 77.2 0 1 713.21 675.95
  Q 696.62 640.22 709.91 603.00
  A 0.76 0.76 0.0 0 1 710.63 602.49
  L 740.99 602.51
  Z"
/>
<path fill="#ffc601" d="
  M 753.18 602.68
  C 762.33 601.88 776.07 601.10 779.86 612.99
  A 0.40 0.39 -8.6 0 1 779.48 613.50
  L 756.31 613.50
  A 0.68 0.68 0.0 0 1 755.66 613.02
  L 752.78 603.26
  A 0.45 0.45 0.0 0 1 753.18 602.68
  Z"
/>
<path fill="#000000" d="
  M 276.46 856.97
  C 274.51 856.38 273.48 856.29 272.72 858.43
  Q 261.40 890.51 226.46 893.97
  C 184.70 898.12 155.72 877.32 146.53 836.74
  C 143.02 821.26 143.66 802.02 143.43 787.11
  Q 143.15 768.64 145.24 752.50
  C 151.11 707.04 187.28 679.95 232.96 689.28
  Q 263.01 695.43 272.37 724.40
  A 0.82 0.82 0.0 0 0 273.14 724.97
  L 275.31 725.01
  A 0.69 0.68 -86.3 0 0 276.00 724.40
  Q 276.28 721.99 276.27 718.50
  Q 276.14 680.29 276.32 614.93
  A 0.45 0.45 0.0 0 1 276.77 614.48
  L 327.72 614.50
  A 0.54 0.53 0.6 0 1 328.25 615.03
  L 328.25 891.12
  A 0.62 0.62 0.0 0 1 327.63 891.74
  L 277.61 891.72
  A 0.61 0.61 0.0 0 1 277.00 891.11
  L 277.00 857.71
  A 0.78 0.77 -81.3 0 0 276.46 856.97
  Z
  M 277.43 805.26
  C 277.67 777.64 282.96 737.63 246.55 730.44
  C 214.19 724.05 194.36 743.87 194.34 775.50
  Q 194.32 796.80 194.41 806.38
  C 194.65 830.87 206.45 850.12 232.99 851.43
  C 263.85 852.95 277.20 833.00 277.43 805.26
  Z"
/>
<rect fill="#ffc601" x="-12.73" y="-10.51" transform="translate(680.97,634.76) rotate(0.1)" width="25.46" height="21.02" rx="0.26"/>
<rect fill="#ffc601" x="757.87" y="624.25" width="22.90" height="21.00" rx="0.26"/>
<path fill="#ffc601" d="
  M 668.74 655.86
  C 677.52 655.47 686.28 656.46 694.99 655.73
  A 0.59 0.59 0.0 0 1 695.61 656.19
  Q 697.72 666.35 701.72 675.92
  A 0.42 0.42 0.0 0 1 701.33 676.50
  L 668.71 676.50
  A 0.49 0.48 0.0 0 1 668.22 676.02
  L 668.22 656.41
  A 0.55 0.54 88.9 0 1 668.74 655.86
  Z"
/>
<path fill="#ffc601" d="
  M 763.56 655.94
  Q 771.96 655.97 780.30 656.10
  A 0.48 0.47 -89.4 0 1 780.76 656.58
  L 780.75 676.00
  A 0.51 0.50 -89.4 0 1 780.25 676.50
  L 750.16 676.50
  A 0.47 0.47 0.0 0 1 749.73 675.85
  Q 753.72 666.45 755.91 656.47
  A 0.79 0.78 -86.9 0 1 756.59 655.85
  C 758.98 655.56 761.84 655.94 763.56 655.94
  Z"
/>
<path fill="#000000" d="
  M 431.04 803.50
  Q 430.47 815.74 431.79 823.72
  C 437.37 857.50 475.91 865.24 501.71 850.25
  Q 509.80 845.56 513.43 835.70
  A 0.70 0.69 -79.6 0 1 514.08 835.25
  L 559.01 835.25
  A 1.33 1.33 0.0 0 1 560.31 836.84
  Q 555.43 860.65 537.98 874.97
  C 521.67 888.34 501.40 894.81 480.50 895.68
  C 423.28 898.08 382.39 868.53 382.40 807.91
  C 382.40 790.93 381.70 773.59 382.73 764.03
  C 386.89 725.41 410.32 698.17 447.58 689.52
  C 499.55 677.45 550.77 701.68 559.16 758.00
  C 561.11 771.05 560.26 787.91 560.43 802.53
  A 0.47 0.46 90.0 0 1 559.97 803.00
  L 431.56 803.00
  A 0.52 0.52 0.0 0 0 431.04 803.50
  Z
  M 512.51 770.44
  C 512.01 744.09 498.56 724.06 470.03 725.20
  C 443.83 726.25 430.74 746.23 431.01 771.06
  A 0.45 0.45 0.0 0 0 431.46 771.50
  L 511.46 771.50
  A 1.05 1.04 -0.5 0 0 512.51 770.44
  Z"
/>
<path fill="#ffc601" d="
  M 684.01 698.79
  C 676.87 698.79 670.75 694.33 668.71 687.48
  A 0.38 0.38 0.0 0 1 669.07 686.99
  Q 713.52 687.27 757.98 687.22
  C 763.58 687.21 772.08 686.79 779.02 687.07
  A 1.01 1.01 0.0 0 1 779.90 688.48
  C 776.18 697.18 770.69 698.73 761.22 698.74
  Q 722.61 698.78 684.01 698.79
  Z"
/>
<path fill="#badbad" d="
  M 470.03 725.20
  C 498.56 724.06 512.01 744.09 512.51 770.44
  A 1.05 1.04 -0.5 0 1 511.46 771.50
  L 431.46 771.50
  A 0.45 0.45 0.0 0 1 431.01 771.06
  C 430.74 746.23 443.83 726.25 470.03 725.20
  Z"
/>
<path fill="#badbad" d="
  M 246.55 730.44
  C 282.96 737.63 277.67 777.64 277.43 805.26
  C 277.20 833.00 263.85 852.95 232.99 851.43
  C 206.45 850.12 194.65 830.87 194.41 806.38
  Q 194.32 796.80 194.34 775.50
  C 194.36 743.87 214.19 724.05 246.55 730.44
  Z"
/>
<path fill="#303030" d="
  M 674.7893 808.3395
  A 9.83 9.83 0.0 0 1 664.9765 818.1867
  L 661.1765 818.1933
  A 9.83 9.83 0.0 0 1 651.3293 808.3805
  L 651.2907 786.2605
  A 9.83 9.83 0.0 0 1 661.1035 776.4133
  L 664.9035 776.4067
  A 9.83 9.83 0.0 0 1 674.7507 786.2195
  L 674.7893 808.3395
  Z
  M 666.89 785.51
  A 3.17 3.17 0.0 0 0 663.72 782.34
  L 662.44 782.34
  A 3.17 3.17 0.0 0 0 659.27 785.51
  L 659.27 809.23
  A 3.17 3.17 0.0 0 0 662.44 812.40
  L 663.72 812.40
  A 3.17 3.17 0.0 0 0 666.89 809.23
  L 666.89 785.51
  Z"
/>
<path fill="#303030" d="
  M 703.6112 808.4308
  A 9.77 9.77 0.0 0 1 693.8072 818.1666
  L 689.9472 818.1531
  A 9.77 9.77 0.0 0 1 680.2114 808.3491
  L 680.2888 786.1692
  A 9.77 9.77 0.0 0 1 690.0928 776.4334
  L 693.9528 776.4469
  A 9.77 9.77 0.0 0 1 703.6886 786.2509
  L 703.6112 808.4308
  Z
  M 695.73 785.18
  A 2.84 2.84 0.0 0 0 692.89 782.34
  L 691.09 782.34
  A 2.84 2.84 0.0 0 0 688.25 785.18
  L 688.25 809.58
  A 2.84 2.84 0.0 0 0 691.09 812.42
  L 692.89 812.42
  A 2.84 2.84 0.0 0 0 695.73 809.58
  L 695.73 785.18
  Z"
/>
<path fill="#303030" d="
  M 818.98 808.31
  A 9.88 9.88 0.0 0 1 809.10 818.19
  L 805.38 818.19
  A 9.88 9.88 0.0 0 1 795.50 808.31
  L 795.50 786.29
  A 9.88 9.88 0.0 0 1 805.38 776.41
  L 809.10 776.41
  A 9.88 9.88 0.0 0 1 818.98 786.29
  L 818.98 808.31
  Z
  M 810.99 785.38
  A 3.06 3.06 0.0 0 0 807.93 782.32
  L 806.57 782.32
  A 3.06 3.06 0.0 0 0 803.51 785.38
  L 803.51 809.34
  A 3.06 3.06 0.0 0 0 806.57 812.40
  L 807.93 812.40
  A 3.06 3.06 0.0 0 0 810.99 809.34
  L 810.99 785.38
  Z"
/>
<path fill="#303030" d="
  M 876.49 808.53
  A 9.65 9.65 0.0 0 1 866.84 818.18
  L 862.92 818.18
  A 9.65 9.65 0.0 0 1 853.27 808.53
  L 853.27 786.05
  A 9.65 9.65 0.0 0 1 862.92 776.40
  L 866.84 776.40
  A 9.65 9.65 0.0 0 1 876.49 786.05
  L 876.49 808.53
  Z
  M 868.75 785.64
  A 3.18 3.18 0.0 0 0 865.57 782.46
  L 864.19 782.46
  A 3.18 3.18 0.0 0 0 861.01 785.64
  L 861.01 809.22
  A 3.18 3.18 0.0 0 0 864.19 812.40
  L 865.57 812.40
  A 3.18 3.18 0.0 0 0 868.75 809.22
  L 868.75 785.64
  Z"
/>
<path fill="#303030" d="
  M 963.2389 808.0993
  A 10.06 10.06 0.0 0 1 953.1964 818.1769
  L 949.6364 818.1831
  A 10.06 10.06 0.0 0 1 939.5589 808.1406
  L 939.5211 786.5007
  A 10.06 10.06 0.0 0 1 949.5636 776.4231
  L 953.1236 776.4169
  A 10.06 10.06 0.0 0 1 963.2011 786.4594
  L 963.2389 808.0993
  Z
  M 955.1788 785.5567
  A 3.23 3.23 0.0 0 0 951.9375 782.3380
  L 950.7575 782.3422
  A 3.23 3.23 0.0 0 0 947.5388 785.5834
  L 947.6212 809.1833
  A 3.23 3.23 0.0 0 0 950.8625 812.4020
  L 952.0425 812.3978
  A 3.23 3.23 0.0 0 0 955.2612 809.1566
  L 955.1788 785.5567
  Z"
/>
<path fill="#303030" d="
  M 1164.8709 808.2606
  A 9.92 9.92 0.0 0 1 1154.9336 818.1632
  L 1151.1736 818.1567
  A 9.92 9.92 0.0 0 1 1141.2709 808.2194
  L 1141.3091 786.3394
  A 9.92 9.92 0.0 0 1 1151.2464 776.4368
  L 1155.0064 776.4433
  A 9.92 9.92 0.0 0 1 1164.9091 786.3806
  L 1164.8709 808.2606
  Z
  M 1156.76 785.46
  A 3.16 3.16 0.0 0 0 1153.60 782.30
  L 1152.44 782.30
  A 3.16 3.16 0.0 0 0 1149.28 785.46
  L 1149.28 809.28
  A 3.16 3.16 0.0 0 0 1152.44 812.44
  L 1153.60 812.44
  A 3.16 3.16 0.0 0 0 1156.76 809.28
  L 1156.76 785.46
  Z"
/>
<path fill="#303030" d="
  M 1193.7007 808.3405
  A 9.87 9.87 0.0 0 1 1183.8135 818.1932
  L 1180.0735 818.1867
  A 9.87 9.87 0.0 0 1 1170.2208 808.2995
  L 1170.2593 786.2595
  A 9.87 9.87 0.0 0 1 1180.1465 776.4068
  L 1183.8865 776.4133
  A 9.87 9.87 0.0 0 1 1193.7392 786.3005
  L 1193.7007 808.3405
  Z
  M 1185.74 785.12
  A 2.61 2.61 0.0 0 0 1183.13 782.51
  L 1180.85 782.51
  A 2.61 2.61 0.0 0 0 1178.24 785.12
  L 1178.24 809.62
  A 2.61 2.61 0.0 0 0 1180.85 812.23
  L 1183.13 812.23
  A 2.61 2.61 0.0 0 0 1185.74 809.62
  L 1185.74 785.12
  Z"
/>
<path fill="#303030" d="
  M 732.5389 808.4891
  A 9.61 9.61 0.0 0 1 722.9625 818.1326
  L 718.8025 818.1471
  A 9.61 9.61 0.0 0 1 709.1591 808.5707
  L 709.0811 786.2309
  A 9.61 9.61 0.0 0 1 718.6575 776.5874
  L 722.8175 776.5729
  A 9.61 9.61 0.0 0 1 732.4609 786.1493
  L 732.5389 808.4891
  Z
  M 724.7508 785.5268
  A 3.06 3.06 0.0 0 0 721.6961 782.4614
  L 720.0761 782.4586
  A 3.06 3.06 0.0 0 0 717.0108 785.5133
  L 716.9692 809.3532
  A 3.06 3.06 0.0 0 0 720.0239 812.4186
  L 721.6439 812.4214
  A 3.06 3.06 0.0 0 0 724.7092 809.3667
  L 724.7508 785.5268
  Z"
/>
<path fill="#303030" d="
  M 761.2798 808.6897
  A 9.45 9.45 0.0 0 1 751.8463 818.1562
  L 747.4863 818.1638
  A 9.45 9.45 0.0 0 1 738.0198 808.7303
  L 737.9802 786.0303
  A 9.45 9.45 0.0 0 1 747.4137 776.5638
  L 751.7737 776.5562
  A 9.45 9.45 0.0 0 1 761.2402 785.9897
  L 761.2798 808.6897
  Z
  M 753.49 785.81
  A 3.54 3.54 0.0 0 0 749.95 782.27
  L 749.29 782.27
  A 3.54 3.54 0.0 0 0 745.75 785.81
  L 745.75 808.91
  A 3.54 3.54 0.0 0 0 749.29 812.45
  L 749.95 812.45
  A 3.54 3.54 0.0 0 0 753.49 808.91
  L 753.49 785.81
  Z"
/>
<path fill="#303030" d="
  M 847.7596 808.5897
  A 9.55 9.55 0.0 0 1 838.2263 818.1563
  L 834.0463 818.1636
  A 9.55 9.55 0.0 0 1 824.4797 808.6303
  L 824.4404 786.1303
  A 9.55 9.55 0.0 0 1 833.9737 776.5637
  L 838.1537 776.5564
  A 9.55 9.55 0.0 0 1 847.7203 786.0897
  L 847.7596 808.5897
  Z
  M 839.99 785.79
  A 3.51 3.51 0.0 0 0 836.48 782.28
  L 835.76 782.28
  A 3.51 3.51 0.0 0 0 832.25 785.79
  L 832.25 808.97
  A 3.51 3.51 0.0 0 0 835.76 812.48
  L 836.48 812.48
  A 3.51 3.51 0.0 0 0 839.99 808.97
  L 839.99 785.79
  Z"
/>
<path fill="#303030" d="
  M 905.4407 808.4205
  A 9.76 9.76 0.0 0 1 895.6637 818.1634
  L 891.7237 818.1565
  A 9.76 9.76 0.0 0 1 881.9807 808.3795
  L 882.0193 786.2995
  A 9.76 9.76 0.0 0 1 891.7963 776.5566
  L 895.7363 776.5635
  A 9.76 9.76 0.0 0 1 905.4793 786.3405
  L 905.4407 808.4205
  Z
  M 897.50 785.62
  A 3.34 3.34 0.0 0 0 894.16 782.28
  L 893.12 782.28
  A 3.34 3.34 0.0 0 0 889.78 785.62
  L 889.78 809.08
  A 3.34 3.34 0.0 0 0 893.12 812.42
  L 894.16 812.42
  A 3.34 3.34 0.0 0 0 897.50 809.08
  L 897.50 785.62
  Z"
/>
<path fill="#303030" d="
  M 991.9994 808.4595
  A 9.68 9.68 0.0 0 1 982.3363 818.1564
  L 978.1963 818.1636
  A 9.68 9.68 0.0 0 1 968.4994 808.5005
  L 968.4606 786.2605
  A 9.68 9.68 0.0 0 1 978.1237 776.5636
  L 982.2637 776.5564
  A 9.68 9.68 0.0 0 1 991.9606 786.2195
  L 991.9994 808.4595
  Z
  M 983.9488 785.5769
  A 3.26 3.26 0.0 0 0 980.6775 782.3283
  L 979.6375 782.3319
  A 3.26 3.26 0.0 0 0 976.3889 785.6033
  L 976.4712 809.1831
  A 3.26 3.26 0.0 0 0 979.7425 812.4317
  L 980.7825 812.4281
  A 3.26 3.26 0.0 0 0 984.0311 809.1567
  L 983.9488 785.5769
  Z"
/>
<path fill="#303030" d="
  M 1020.7985 808.3589
  A 9.76 9.76 0.0 0 1 1011.0726 818.1529
  L 1007.0726 818.1669
  A 9.76 9.76 0.0 0 1 997.2786 808.4410
  L 997.2015 786.3611
  A 9.76 9.76 0.0 0 1 1006.9274 776.5671
  L 1010.9274 776.5531
  A 9.76 9.76 0.0 0 1 1020.7214 786.2790
  L 1020.7985 808.3589
  Z
  M 1012.74 785.33
  A 2.86 2.86 0.0 0 0 1009.88 782.47
  L 1008.12 782.47
  A 2.86 2.86 0.0 0 0 1005.26 785.33
  L 1005.26 809.51
  A 2.86 2.86 0.0 0 0 1008.12 812.37
  L 1009.88 812.37
  A 2.86 2.86 0.0 0 0 1012.74 809.51
  L 1012.74 785.33
  Z"
/>
<path fill="#303030" d="
  M 1049.5585 808.3889
  A 9.75 9.75 0.0 0 1 1039.8426 818.1729
  L 1035.8427 818.1869
  A 9.75 9.75 0.0 0 1 1026.0587 808.4709
  L 1025.9815 786.3511
  A 9.75 9.75 0.0 0 1 1035.6974 776.5671
  L 1039.6973 776.5531
  A 9.75 9.75 0.0 0 1 1049.4813 786.2691
  L 1049.5585 808.3889
  Z
  M 1041.50 785.20
  A 2.86 2.86 0.0 0 0 1038.64 782.34
  L 1036.88 782.34
  A 2.86 2.86 0.0 0 0 1034.02 785.20
  L 1034.02 809.52
  A 2.86 2.86 0.0 0 0 1036.88 812.38
  L 1038.64 812.38
  A 2.86 2.86 0.0 0 0 1041.50 809.52
  L 1041.50 785.20
  Z"
/>
<path fill="#303030" d="
  M 1107.25 808.41
  A 9.78 9.78 0.0 0 1 1097.47 818.19
  L 1093.53 818.19
  A 9.78 9.78 0.0 0 1 1083.75 808.41
  L 1083.75 786.33
  A 9.78 9.78 0.0 0 1 1093.53 776.55
  L 1097.47 776.55
  A 9.78 9.78 0.0 0 1 1107.25 786.33
  L 1107.25 808.41
  Z
  M 1099.24 785.34
  A 3.02 3.02 0.0 0 0 1096.22 782.32
  L 1094.76 782.32
  A 3.02 3.02 0.0 0 0 1091.74 785.34
  L 1091.74 809.24
  A 3.02 3.02 0.0 0 0 1094.76 812.26
  L 1096.22 812.26
  A 3.02 3.02 0.0 0 0 1099.24 809.24
  L 1099.24 785.34
  Z"
/>
<path fill="#303030" d="
  M 1136.01 808.45
  A 9.71 9.71 0.0 0 1 1126.30 818.16
  L 1122.22 818.16
  A 9.71 9.71 0.0 0 1 1112.51 808.45
  L 1112.51 786.27
  A 9.71 9.71 0.0 0 1 1122.22 776.56
  L 1126.30 776.56
  A 9.71 9.71 0.0 0 1 1136.01 786.27
  L 1136.01 808.45
  Z
  M 1128.0293 785.5334
  A 3.19 3.19 0.0 0 0 1124.8338 782.3490
  L 1123.6738 782.3510
  A 3.19 3.19 0.0 0 0 1120.4893 785.5466
  L 1120.5307 809.2266
  A 3.19 3.19 0.0 0 0 1123.7262 812.4110
  L 1124.8862 812.4090
  A 3.19 3.19 0.0 0 0 1128.0707 809.2134
  L 1128.0293 785.5334
  Z"
/>
<rect fill="#f9f9f9" x="659.27" y="782.34" width="7.62" height="30.06" rx="3.17"/>
<rect fill="#f9f9f9" x="688.25" y="782.34" width="7.48" height="30.08" rx="2.84"/>
<rect fill="#f9f9f9" x="745.75" y="782.27" width="7.74" height="30.18" rx="3.54"/>
<rect fill="#f9f9f9" x="803.51" y="782.32" width="7.48" height="30.08" rx="3.06"/>
<rect fill="#f9f9f9" x="832.25" y="782.28" width="7.74" height="30.20" rx="3.51"/>
<rect fill="#f9f9f9" x="889.78" y="782.28" width="7.72" height="30.14" rx="3.34"/>
<rect fill="#f9f9f9" x="-3.82" y="-15.03" transform="translate(951.40,797.37) rotate(-0.2)" width="7.64" height="30.06" rx="3.23"/>
<rect fill="#f9f9f9" x="-3.78" y="-15.05" transform="translate(980.21,797.38) rotate(-0.2)" width="7.56" height="30.10" rx="3.26"/>
<rect fill="#f9f9f9" x="1034.02" y="782.34" width="7.48" height="30.04" rx="2.86"/>
<rect fill="#f9f9f9" x="1091.74" y="782.32" width="7.50" height="29.94" rx="3.02"/>
<rect fill="#f9f9f9" x="-3.77" y="-15.03" transform="translate(1124.28,797.38) rotate(-0.1)" width="7.54" height="30.06" rx="3.19"/>
<rect fill="#f9f9f9" x="1149.28" y="782.30" width="7.48" height="30.14" rx="3.16"/>
<rect fill="#f9f9f9" x="-3.87" y="-14.98" transform="translate(720.86,797.44) rotate(0.1)" width="7.74" height="29.96" rx="3.06"/>
<rect fill="#f9f9f9" x="861.01" y="782.46" width="7.74" height="29.94" rx="3.18"/>
<rect fill="#f9f9f9" x="1005.26" y="782.47" width="7.48" height="29.90" rx="2.86"/>
<rect fill="#f9f9f9" x="1178.24" y="782.51" width="7.50" height="29.72" rx="2.61"/>
<path fill="#0050cb" d="
  M 1161.79 882.56
  C 1155.58 879.16 1146.19 874.74 1146.32 866.58
  C 1146.43 859.09 1153.13 853.54 1160.19 851.92
  Q 1169.27 849.83 1178.01 852.91
  A 0.69 0.69 0.0 0 1 1178.46 853.71
  L 1176.65 862.42
  A 0.61 0.61 0.0 0 1 1175.87 862.88
  C 1170.48 861.22 1165.58 859.63 1160.27 862.91
  Q 1157.93 864.37 1159.55 866.60
  Q 1160.35 867.69 1162.34 868.89
  C 1169.76 873.33 1178.36 876.95 1176.02 887.29
  C 1172.76 901.70 1153.05 901.96 1141.80 898.04
  A 0.67 0.66 -74.9 0 1 1141.37 897.28
  L 1143.26 888.06
  A 0.51 0.50 -71.9 0 1 1143.96 887.70
  C 1148.07 889.55 1162.16 893.59 1163.47 886.02
  Q 1163.87 883.69 1161.79 882.56
  Z"
/>
<path fill="#ffc601" d="
  M 1097.46 881.25
  L 1083.00 862.82
  Q 1078.05 854.22 1067.56 853.10
  A 0.35 0.35 0.0 0 1 1067.25 852.71
  L 1067.29 852.32
  A 0.74 0.73 -86.2 0 1 1068.04 851.66
  Q 1074.53 851.78 1079.08 851.94
  C 1082.24 852.05 1087.39 851.16 1091.43 852.83
  Q 1093.48 853.68 1093.90 855.85
  L 1098.53 879.78
  A 0.89 0.88 65.7 0 1 1098.21 880.64
  L 1097.46 881.25
  Z"
/>
<path fill="#0050cb" d="
  M 1083.00 862.82
  L 1097.46 881.25
  L 1098.93 883.43
  A 0.33 0.32 -48.8 0 0 1099.49 883.39
  C 1104.34 873.50 1108.02 862.73 1112.10 852.49
  A 0.72 0.71 -79.0 0 1 1112.76 852.04
  L 1124.68 851.92
  A 0.37 0.36 -78.9 0 1 1125.02 852.43
  L 1105.56 898.91
  A 0.98 0.97 11.3 0 1 1104.66 899.50
  L 1093.00 899.50
  A 0.99 0.99 0.0 0 1 1092.04 898.75
  L 1083.00 862.82
  Z"
/>
<path fill="#0050cb" d="
  M 1130.76 852.00
  L 1142.45 852.00
  A 0.32 0.32 0.0 0 1 1142.76 852.39
  L 1132.84 899.14
  A 0.32 0.32 0.0 0 1 1132.53 899.39
  L 1120.83 899.54
  A 0.32 0.32 0.0 0 1 1120.51 899.16
  L 1130.45 852.25
  A 0.32 0.32 0.0 0 1 1130.76 852.00
  Z"
/>
<path fill="#0050cb" d="
  M 1206.55 892.50
  L 1192.02 892.50
  A 0.91 0.90 10.2 0 0 1191.17 893.08
  L 1189.20 898.26
  A 1.83 1.81 10.0 0 1 1187.53 899.42
  L 1177.02 899.54
  A 0.79 0.79 0.0 0 1 1176.29 898.43
  Q 1184.85 878.52 1193.03 858.55
  Q 1194.29 855.47 1195.79 853.44
  Q 1196.82 852.04 1198.55 852.04
  L 1209.22 851.99
  A 1.14 1.14 0.0 0 1 1210.35 852.90
  L 1219.93 898.88
  A 0.50 0.50 0.0 0 1 1219.44 899.48
  L 1209.62 899.47
  A 1.22 1.22 0.0 0 1 1208.43 898.51
  L 1207.23 893.05
  A 0.70 0.70 0.0 0 0 1206.55 892.50
  Z
  M 1195.35 881.79
  A 0.33 0.33 0.0 0 0 1195.65 882.23
  L 1204.74 882.79
  A 0.33 0.33 0.0 0 0 1205.08 882.39
  L 1201.54 865.68
  A 0.33 0.33 0.0 0 0 1200.91 865.64
  L 1195.35 881.79
  Z"
/>
<path fill="#f9f9f9" d="
  M 1195.35 881.79
  L 1200.91 865.64
  A 0.33 0.33 0.0 0 1 1201.54 865.68
  L 1205.08 882.39
  A 0.33 0.33 0.0 0 1 1204.74 882.79
  L 1195.65 882.23
  A 0.33 0.33 0.0 0 1 1195.35 881.79
  Z"
/>
<rect fill="#303030" x="652.49" y="867.26" width="256.26" height="16.50" rx="8.17"/>
</svg>
